HIERARCHY
ROOT Hips
{
	OFFSET 0.000000 0.000000 0.000000
	CHANNELS 6 Xposition Yposition Zposition Zrotation Yrotation Xrotation 
	JOINT LHipJoint
	{
		OFFSET 0.000000 0.000000 0.000000
		CHANNELS 3 Zrotation Yrotation Xrotation
		JOINT LeftUpLeg
		{
			OFFSET 1.363060 -1.794630 0.839290
			CHANNELS 3 Zrotation Yrotation Xrotation
			JOINT LeftLeg
			{
				OFFSET 2.448110 -6.726130 0.000000
				CHANNELS 3 Zrotation Yrotation Xrotation
				JOINT LeftFoot
				{
					OFFSET 2.562200 -7.039590 0.000000
					CHANNELS 3 Zrotation Yrotation Xrotation
					JOINT LeftToeBase
					{
						OFFSET 0.157640 -0.433110 2.322550
						CHANNELS 3 Zrotation Yrotation Xrotation
						End Site
						{
							OFFSET 0.000000 0.000000 0.000000
						}
					}
				}
			}
		}
	}
	JOINT RHipJoint
	{
		OFFSET 0.000000 0.000000 0.000000
		CHANNELS 3 Zrotation Yrotation Xrotation
		JOINT RightUpLeg
		{
			OFFSET -1.305520 -1.794630 0.839290
			CHANNELS 3 Zrotation Yrotation Xrotation
			JOINT RightLeg
			{
				OFFSET -2.542530 -6.985550 0.000000
				CHANNELS 3 Zrotation Yrotation Xrotation
				JOINT RightFoot
				{
					OFFSET -2.568260 -7.056230 0.000000
					CHANNELS 3 Zrotation Yrotation Xrotation
					JOINT RightToeBase
					{
						OFFSET -0.164730 -0.452590 2.363150
						CHANNELS 3 Zrotation Yrotation Xrotation
						End Site
						{
							OFFSET 0.000000 0.000000 0.000000
						}
					}
				}
			}
		}
	}
	JOINT LowerBack
	{
		OFFSET 0.000000 0.000000 0.000000
		CHANNELS 3 Zrotation Yrotation Xrotation
		JOINT Spine
		{
			OFFSET 0.028270 2.035590 -0.193380
			CHANNELS 3 Zrotation Yrotation Xrotation
			JOINT Spine1
			{
				OFFSET 0.056720 2.048850 -0.042750
				CHANNELS 3 Zrotation Yrotation Xrotation
				JOINT Neck
				{
					OFFSET 0.000000 0.000000 0.000000
					CHANNELS 3 Zrotation Yrotation Xrotation
					JOINT Neck1
					{
						OFFSET -0.054170 1.746240 0.172020
						CHANNELS 3 Zrotation Yrotation Xrotation
						JOINT Head
						{
							OFFSET 0.104070 1.761360 -0.123970
							CHANNELS 3 Zrotation Yrotation Xrotation
							End Site
							{
								OFFSET 0.000000 0.000000 0.000000
							}
						}
					}
				}
				JOINT LeftShoulder
				{
					OFFSET 0.000000 0.000000 0.000000
					CHANNELS 3 Zrotation Yrotation Xrotation
					JOINT LeftArm
					{
						OFFSET 3.362410 1.200890 -0.311210
						CHANNELS 3 Zrotation Yrotation Xrotation
						JOINT LeftForeArm
						{
							OFFSET 4.983000 -0.000000 -0.000000
							CHANNELS 3 Zrotation Yrotation Xrotation
							JOINT LeftHand
							{
								OFFSET 3.483560 -0.000000 -0.000000
								CHANNELS 3 Zrotation Yrotation Xrotation
								JOINT LeftFingerBase
								{
									OFFSET 0.000000 0.000000 0.000000
									CHANNELS 3 Zrotation Yrotation Xrotation
									JOINT LeftHandIndex1
									{
										OFFSET 0.715260 -0.000000 -0.000000
										CHANNELS 3 Zrotation Yrotation Xrotation
										End Site
										{
											OFFSET 0.000000 0.000000 0.000000
										}
									}
								}
								JOINT LThumb
								{
									OFFSET 0.000000 0.000000 0.000000
									CHANNELS 3 Zrotation Yrotation Xrotation
									End Site
									{
										OFFSET 0.000000 0.000000 0.000000
									}
								}
							}
						}
					}
				}
				JOINT RightShoulder
				{
					OFFSET 0.000000 0.000000 0.000000
					CHANNELS 3 Zrotation Yrotation Xrotation
					JOINT RightArm
					{
						OFFSET -3.136600 1.374050 -0.404650
						CHANNELS 3 Zrotation Yrotation Xrotation
						JOINT RightForeArm
						{
							OFFSET -5.241900 -0.000000 -0.000000
							CHANNELS 3 Zrotation Yrotation Xrotation
							JOINT RightHand
							{
								OFFSET -3.444170 -0.000000 -0.000000
								CHANNELS 3 Zrotation Yrotation Xrotation
								JOINT RightFingerBase
								{
									OFFSET 0.000000 0.000000 0.000000
									CHANNELS 3 Zrotation Yrotation Xrotation
									JOINT RightHandIndex1
									{
										OFFSET -0.622530 -0.000000 -0.000000
										CHANNELS 3 Zrotation Yrotation Xrotation
										End Site
										{
											OFFSET 0.000000 0.000000 0.000000
										}
									}
								}
								JOINT RThumb
								{
									OFFSET 0.000000 0.000000 0.000000
									CHANNELS 3 Zrotation Yrotation Xrotation
									End Site
									{
										OFFSET 0.000000 0.000000 0.000000
									}
								}
							}
						}
					}
				}
			}
		}
	}
}
MOTION
Frames: 9
Frame Time: 0.008333
14.747748 14.725135 14.085556 -171.861876 16.636183 -161.223117 5.409852 13.987831 2.310402 -25.831667 -2.411942 2.500565 1.788373 2.773996 39.516479 -18.333945 12.396077 28.115231 -3.319955 11.236558 15.663841 10.930351 -21.814005 12.900262 10.243655 30.955855 -69.950730 -10.022528 2.601237 39.466042 3.589216 11.618826 4.104654 -3.131712 1.572495 -11.476481 -11.675411 1.597200 0.065567 8.471652 0.524977 -4.443399 13.662033 -5.282840 9.414606 -4.203136 1.682248 -16.075058 8.616295 2.139975 10.818028 -12.735567 16.319524 4.822451 8.137513 -2.385045 7.228232 -78.150006 -50.208408 32.256359 99.795114 -62.321198 -18.698953 -11.672460 -53.401023 14.095251 0.000001 -0.000001 -0.000001 0.000000 0.000000 0.000000 0.000000 0.000000 0.000000 -7.329253 -5.880198 3.289447 61.790902 5.448448 10.673432 -3.810537 56.422421 19.296823 -20.799473 31.379759 -1.656010 0.000002 0.000001 -0.000002 0.000000 0.000000 0.000000 -0.000000 0.000000 0.000000 
14.826156 14.672748 13.762778 -171.290362 16.986866 -162.103746 5.612170 14.557342 2.755535 -26.099906 -3.447564 0.909765 3.612020 5.024293 44.604637 -17.276548 12.668671 26.378193 -3.472225 9.756943 18.485135 10.301980 -22.004552 12.255302 12.259392 32.220797 -67.765800 -10.488216 4.520608 44.446619 0.384069 8.625465 0.262512 -1.553471 -0.373657 -11.790954 -10.863611 1.200689 0.236047 8.024316 1.291545 -4.066985 13.435793 -5.107665 10.234396 -4.103596 1.650022 -16.360323 8.920974 2.057573 11.163202 -12.026019 16.050999 4.765649 8.400978 -1.859233 5.732045 -78.681291 -46.678786 35.752674 98.233662 -59.142485 -19.757296 -3.995666 -47.158332 9.543092 0.000001 -0.000001 -0.000001 -0.000000 0.000000 0.000000 0.000000 -0.000000 -0.000000 -7.495052 -5.655180 3.837321 61.873433 7.953058 9.668360 -1.834855 55.612787 20.228703 -21.430605 31.599945 -1.851502 0.000002 0.000001 -0.000002 -0.000000 -0.000000 -0.000000 -0.000000 0.000000 -0.000000 
14.896937 14.630646 13.427372 -170.628130 17.538409 -162.907629 5.415789 14.975140 3.660951 -25.782236 -4.381140 -1.245299 6.025323 7.508020 49.221709 -16.993241 13.326855 25.249933 -3.439940 6.727175 19.629028 9.856824 -22.010061 11.398244 13.640310 33.396068 -65.264483 -10.187580 5.775242 49.115403 -2.982124 4.939760 -2.805993 -1.233522 -1.455490 -15.344673 -9.973679 0.756623 0.211236 7.724758 2.072462 -3.634010 12.794397 -4.905334 11.878143 -3.719670 1.614244 -17.308991 9.207458 1.958888 11.510259 -11.521495 16.053433 5.384674 8.572460 -0.660017 4.922270 -79.003466 -44.529754 36.774996 97.306775 -58.543923 -17.073775 1.664371 -45.591914 6.162664 0.000001 -0.000001 -0.000001 -0.000000 0.000000 -0.000000 0.000000 0.000000 0.000000 -7.052556 -5.533156 4.319052 61.543546 11.140835 8.402906 0.166332 54.734106 21.011296 -20.412677 31.517488 -1.547242 0.000002 0.000001 -0.000002 0.000000 0.000000 0.000000 -0.000000 0.000000 0.000000 
14.962072 14.598018 13.095075 -169.932809 18.131530 -163.756353 4.931440 15.248881 4.571575 -24.994544 -4.777000 -3.638754 9.082361 9.743355 53.583758 -17.341853 13.898929 24.776257 -3.481205 7.425567 19.982225 9.607692 -21.883478 10.380105 14.349894 34.424423 -62.463120 -10.335795 5.377341 52.657242 -5.432474 2.179292 -4.772382 -2.194156 -1.038680 -18.851514 -9.146117 0.295459 0.342050 7.581647 2.490048 -3.232440 12.091388 -4.971514 14.146090 -3.312882 1.594025 -18.803719 9.415547 1.910853 11.840706 -11.484815 16.110307 4.872898 8.333751 1.720816 5.023165 -79.263610 -43.725603 34.032672 96.994675 -61.895110 -11.541488 -1.587864 -50.432895 8.292516 0.000001 -0.000001 -0.000001 -0.000000 0.000000 0.000000 -0.000000 -0.000000 0.000000 -6.493092 -4.944936 4.741085 60.922708 15.013276 6.859640 2.141584 53.730771 22.075785 -18.304313 31.878841 -0.926452 0.000002 0.000001 -0.000002 -0.000000 0.000000 0.000000 0.000000 0.000000 0.000000 
15.044895 14.563994 12.779745 -169.316480 18.357143 -164.279784 4.976416 15.333834 4.903438 -24.566265 -5.252975 -6.513917 10.619697 10.734518 58.611465 -17.024318 13.786037 24.349671 -3.681816 12.863159 19.730264 9.128598 -21.882673 10.198228 15.582092 34.873064 -60.040749 -10.820038 4.866275 54.113304 -7.276627 1.274888 -6.436368 -2.755129 -0.792602 -20.667968 -9.241478 -0.028838 0.313824 7.726792 2.774203 -2.858013 12.098876 -5.180601 16.164719 -3.053759 1.514662 -20.112631 9.213885 1.902179 11.693474 -12.099899 16.000167 4.339294 8.352945 3.540047 4.087823 -80.293134 -40.996983 34.436341 94.580149 -62.296816 -10.474223 -0.145066 -48.050456 7.171793 0.000001 -0.000001 -0.000001 -0.000000 0.000000 -0.000000 -0.000000 0.000000 -0.000000 -6.263162 -4.566936 5.374132 60.671453 19.544435 5.284911 3.886693 52.224608 23.063471 -16.449585 32.325335 -0.378479 0.000002 0.000001 -0.000002 -0.000000 0.000000 -0.000000 0.000000 0.000000 0.000000 
15.144294 14.564850 12.465075 -168.870621 18.268414 -164.548789 4.359676 14.706420 5.242076 -23.179327 -5.939793 -9.827480 12.576635 12.412230 63.064942 -17.120390 13.799733 24.743201 -3.617928 14.053751 18.240796 9.816730 -21.365152 9.995186 15.663227 34.120048 -58.725271 -11.714815 4.358144 55.193174 -8.696872 1.094127 -7.739311 -2.334844 -1.393521 -21.612213 -10.046007 -0.400020 -0.014453 8.471903 2.381145 -2.468840 12.598042 -5.814246 18.654460 -3.179646 1.440888 -21.802326 8.969355 1.974454 11.576874 -12.197339 15.849779 4.523278 7.106669 6.011319 3.527235 -80.856890 -39.154735 33.325910 91.539561 -63.988410 -8.349322 -2.849513 -48.015293 8.446393 0.000001 -0.000001 -0.000001 0.000000 0.000000 -0.000000 -0.000000 0.000000 -0.000000 -6.157288 -3.725044 6.094934 59.679502 24.643980 3.181562 5.598486 50.603126 24.047931 -13.866389 32.690704 0.418823 0.000002 0.000001 -0.000002 0.000000 0.000000 -0.000000 -0.000000 -0.000000 -0.000000 
15.240090 14.566351 12.151366 -168.428767 18.156303 -164.695232 3.635403 13.646275 5.607040 -21.562550 -6.410619 -13.276802 15.065911 14.222348 67.230982 -17.063650 13.534262 25.680885 -3.514367 12.038353 17.883725 10.492947 -20.522177 9.703813 14.832750 33.522154 -57.655001 -12.704637 2.793294 55.986614 -9.639640 0.982178 -8.886641 -1.844607 -1.964741 -22.040436 -10.838772 -0.776272 -0.452539 9.252452 2.041438 -2.051346 13.370572 -6.431572 20.633917 -3.683654 1.575927 -23.036181 8.695722 2.226522 11.396203 -9.643379 15.286856 5.686758 5.402786 7.987637 2.941512 -81.134380 -37.132795 31.783486 87.239453 -65.706702 -3.840823 -4.900680 -48.285229 9.458746 0.000001 -0.000001 -0.000001 -0.000000 0.000000 0.000000 0.000000 -0.000000 -0.000000 -6.428488 -2.735873 6.667245 58.473531 29.025547 1.259417 6.811837 48.919521 25.090883 -11.888121 33.421977 1.049987 0.000002 0.000001 -0.000002 -0.000000 -0.000000 0.000000 0.000000 -0.000000 -0.000000 
15.328228 14.574730 11.835120 -168.102251 18.028218 -164.926893 2.800600 12.553629 6.018859 -19.906394 -6.449736 -16.787605 16.713836 15.098041 71.297905 -16.627446 13.540566 26.259644 -3.274721 9.091916 16.748104 11.040698 -19.711008 9.434842 14.671615 32.454084 -56.318355 -14.071789 1.603012 56.459565 -10.389595 1.507860 -9.853955 -2.254945 -1.686688 -22.782226 -11.551905 -1.069233 -0.801304 10.058461 2.008997 -1.575904 13.985281 -6.547053 21.761751 -4.110233 1.702074 -23.544082 8.349649 2.414026 11.095282 -7.375372 14.540509 7.400209 3.957047 8.698276 2.085060 -81.213304 -34.490860 29.805074 81.352486 -67.324138 0.134384 -8.811446 -47.908011 11.226774 0.000001 -0.000001 -0.000001 -0.000000 0.000000 -0.000000 0.000000 -0.000000 0.000000 -6.491820 -2.054326 7.132291 57.098806 32.418922 0.103253 6.981560 47.369139 25.291478 -10.578876 33.298857 1.451905 0.000002 0.000001 -0.000002 -0.000000 0.000000 -0.000000 -0.000000 -0.000000 -0.000000 
15.417117 14.607628 11.525345 -168.642013 17.582831 -164.902589 2.709806 12.157414 6.122606 -19.700128 -7.182690 -20.575849 18.232132 15.709450 74.921245 -17.110137 12.047324 26.122263 -3.053413 6.039309 16.209723 11.192744 -19.324975 9.334099 14.410196 31.030238 -55.743875 -15.341211 1.016652 56.483121 -11.443906 2.583380 -11.396390 -2.123784 -1.934066 -23.492286 -11.778870 -1.451935 -0.956225 10.374934 1.612371 -1.271306 14.212379 -7.096647 21.818698 -4.706502 1.759660 -23.329170 7.634462 2.644770 10.344183 -7.206173 14.124597 7.662599 2.867037 9.704246 1.225942 -81.893570 -31.294892 27.450721 73.075520 -68.781245 3.772006 -13.303961 -47.049001 13.098449 0.000001 -0.000001 -0.000001 0.000000 0.000000 0.000000 0.000000 0.000000 -0.000000 -7.439324 -0.646916 7.469020 56.102273 35.447555 -0.765528 6.871064 46.457219 25.430467 -10.038875 33.450106 1.632144 0.000002 0.000001 -0.000002 0.000000 0.000000 0.000000 0.000000 -0.000000 0.000000 
